<svg width="12" height="11" viewBox="0 0 12 11" fill="none" xmlns="http://www.w3.org/2000/svg">
<path d="M11.0021 3.57287L7.95835 3.12912L6.59793 0.370792C6.35418 -0.120874 5.64793 -0.127124 5.4021 0.370792L4.04168 3.12912L0.997929 3.57287C0.452096 3.65204 0.233346 4.32495 0.629179 4.71037L2.83126 6.8562L2.31043 9.88744C2.21668 10.4354 2.79376 10.8458 3.2771 10.5895L6.00001 9.15828L8.72293 10.5895C9.20626 10.8437 9.78335 10.4354 9.6896 9.88744L9.16876 6.8562L11.3708 4.71037C11.7667 4.32495 11.5479 3.65204 11.0021 3.57287ZM8.09585 6.5062L8.58959 9.38953L6.00001 8.02911L3.41043 9.38953L3.90418 6.5062L1.80835 4.46454L4.70418 4.0437L6.00001 1.41871L7.29585 4.0437L10.1917 4.46454L8.09585 6.5062Z" fill="white"/>
</svg>
